<?xml version="1.0" encoding="UTF-8" standalone="no"?>
<!-- Generator: Adobe Illustrator 16.0.3, SVG Export Plug-In . SVG Version: 6.00 Build 0)  -->

<svg
   xmlns:dc="http://purl.org/dc/elements/1.1/"
   xmlns:cc="http://creativecommons.org/ns#"
   xmlns:rdf="http://www.w3.org/1999/02/22-rdf-syntax-ns#"
   xmlns:svg="http://www.w3.org/2000/svg"
   xmlns="http://www.w3.org/2000/svg"
   xmlns:sodipodi="http://sodipodi.sourceforge.net/DTD/sodipodi-0.dtd"
   xmlns:inkscape="http://www.inkscape.org/namespaces/inkscape"
   version="1.0"
   id="Layer_1"
   x="0px"
   y="0px"
   width="256"
   height="256"
   viewBox="0 0 256 256"
   enable-background="new 0 0 409 205"
   xml:space="preserve"
   sodipodi:docname="icon-babylonjs-red.svg"
   inkscape:version="0.92.1 r15371"
   inkscape:export-filename="C:\Dev\WebGlSpector\Spector\extensions\logo-babylonjs-19.png"
   inkscape:export-xdpi="7.125"
   inkscape:export-ydpi="7.125"><metadata
     id="metadata3789"><rdf:RDF><cc:Work
         rdf:about=""><dc:format>image/svg+xml</dc:format><dc:type
           rdf:resource="http://purl.org/dc/dcmitype/StillImage" /><dc:title></dc:title></cc:Work></rdf:RDF></metadata><defs
     id="defs3787"><inkscape:perspective
       sodipodi:type="inkscape:persp3d"
       inkscape:vp_x="0 : 102.5 : 1"
       inkscape:vp_y="0 : 1000 : 0"
       inkscape:vp_z="409 : 102.5 : 1"
       inkscape:persp3d-origin="204.5 : 68.333333 : 1"
       id="perspective4736" /><clipPath
       clipPathUnits="userSpaceOnUse"
       id="clipPath4671"><g
         inkscape:label="Clip"
         id="use4673"><flowRoot
           transform="matrix(0.85749881,0,0,1.0072354,-2.1266666,-84.539648)"
           style="font-style:normal;font-variant:normal;font-weight:bold;font-stretch:normal;font-size:85.33333588px;line-height:1.25;font-family:sans-serif;-inkscape-font-specification:'sans-serif Bold';letter-spacing:-3.98999977px;word-spacing:0px;fill:#001e2d;fill-opacity:1;stroke:none"
           id="flowRoot4686"
           xml:space="preserve"><flowRegion
             style="font-style:normal;font-variant:normal;font-weight:bold;font-stretch:normal;font-size:85.33333588px;line-height:1.25;font-family:sans-serif;-inkscape-font-specification:'sans-serif Bold';letter-spacing:-3.98999977px;fill:#001e2d;fill-opacity:1"
             id="flowRegion4682"><rect
               style="font-style:normal;font-variant:normal;font-weight:bold;font-stretch:normal;font-size:85.33333588px;line-height:1.25;font-family:sans-serif;-inkscape-font-specification:'sans-serif Bold';letter-spacing:-3.98999977px;fill:#001e2d;fill-opacity:1"
               y="101.53908"
               x="17.243486"
               height="149.37897"
               width="373.15683"
               id="rect4680" /></flowRegion><flowPara
             style="font-style:normal;font-variant:normal;font-weight:bold;font-stretch:normal;font-size:85.33333588px;line-height:1.25;font-family:sans-serif;-inkscape-font-specification:'sans-serif Bold';letter-spacing:-3.98999977px;fill:#001e2d;fill-opacity:1"
             id="flowPara4684">Spector</flowPara></flowRoot></g></clipPath></defs><sodipodi:namedview
     pagecolor="#ffffff"
     bordercolor="#666666"
     borderopacity="1"
     objecttolerance="10"
     gridtolerance="10"
     guidetolerance="10"
     inkscape:pageopacity="0"
     inkscape:pageshadow="2"
     inkscape:window-width="2250"
     inkscape:window-height="1421"
     id="namedview3785"
     showgrid="true"
     inkscape:zoom="5.1613692"
     inkscape:cx="72.404841"
     inkscape:cy="107.10041"
     inkscape:window-x="-11"
     inkscape:window-y="-11"
     inkscape:window-maximized="1"
     inkscape:current-layer="Layer_1"><inkscape:grid
       type="xygrid"
       id="grid4742" /></sodipodi:namedview><path
     style="fill:none;stroke-width:1.29471874"
     inkscape:connector-curvature="0"
     id="path3680"
     d="m 13.61684,108.74276 c -10.9813374,0 -15.3179984,6.59259 -15.3179984,17.14205 0,10.45528 4.42893,16.9537 15.4102674,16.9537 10.981337,0 15.317998,-6.40424 15.317998,-16.9537 0,-10.54946 -4.430211,-17.14205 -15.410267,-17.14205 z" /><path
     style="fill:none;stroke-width:1.29471874"
     inkscape:connector-curvature="0"
     id="path3682"
     d="m 85.124322,129.65201 c -2.49127,0 -4.89027,0 -8.02871,0.18836 -3.04489,0.0942 -6.27432,0.37672 -9.134673,1.03598 -5.814252,1.22434 -8.213256,3.2963 -8.213256,6.31005 0,4.33359 5.536163,6.21588 11.534949,6.21588 4.70574,0 15.87162,-0.56508 15.87162,-6.49842 v -5.65079 l 0.0243,-1.59975 c -0.5549,-0.0942 -1.6852,-0.001 -2.05428,-0.001 z" /><path
     style="fill:none;stroke-width:1.29471874"
     inkscape:connector-curvature="0"
     id="path3688"
     d="m 138.08694,108.74276 c -10.98133,0 -15.31799,6.59259 -15.31799,17.14205 0,10.45528 4.42893,16.9537 15.41026,16.9537 10.98134,0 15.318,-6.40424 15.318,-16.9537 -0.001,-10.54946 -4.43021,-17.14205 -15.41027,-17.14205 z" /><path
     style="fill:none;stroke-width:1.29471874"
     inkscape:connector-curvature="0"
     id="path3684"
     d="m 72.798672,93.070959 c 0.12943,0.0602 0.26015,0.11773 0.3883,0.1792 -0.0679,-0.1308 -0.13071,-0.26422 -0.19735,-0.39503 -0.0641,0.0719 -0.12559,0.1452 -0.19095,0.21583 z" /><path
     style="fill:none;stroke-width:1.29471874"
     inkscape:connector-curvature="0"
     id="path3686"
     d="m 61.875005,68.312107 c 0.199917,0.769136 0.316535,1.574897 0.316535,2.408128 0,5.191668 -4.123929,9.402294 -9.211559,9.402294 -5.087631,0 -9.21156,-4.209318 -9.21156,-9.402294 0,-5.192976 4.123929,-9.402295 9.21156,-9.402295 0.512607,0 1.013681,0.05363 1.504503,0.136038 -0.08971,-0.495753 -0.142249,-1.004586 -0.142249,-1.5265 0,-1.675617 0.485696,-3.23351 1.312276,-4.545489 -1.776186,-0.603013 -3.803549,-0.940491 -6.130787,-0.940491 -10.889068,0 -15.503819,6.780954 -15.503819,17.047873 0,10.172738 4.79929,17.142048 15.503819,17.142048 10.796798,0 15.502536,-6.97062 15.502536,-17.142048 0,-1.202102 -0.07176,-2.355806 -0.205043,-3.461112 -0.709961,0.202748 -1.455806,0.320473 -2.228562,0.320473 -0.242207,0.0013 -0.480569,-0.0157 -0.71765,-0.03663 z" /><path
     style="fill:#00aeef;stroke-width:1.29471874"
     inkscape:connector-curvature="0"
     id="path3690"
     d="m 170.01215,70.016502 c -0.57156,19.994917 -12.07704,37.181448 -28.63555,45.547758 v 24.21863 c 4.22133,6.65015 7.18804,14.20155 8.56824,22.3141 l 5.54385,-5.65864 c 7.65964,7.06349 16.51878,10.35979 25.1921,10.35979 12.27311,0 16.70204,-3.95425 16.70204,-8.19366 0,-2.44998 -2.12219,-6.21718 -11.90403,-8.66586 -1.66085,-0.37672 -12.08857,-3.01506 -13.84169,-3.48465 -13.28807,-3.48466 -25.1921,-8.57168 -25.1921,-21.47564 0,-12.15052 11.35042,-22.13359 32.75947,-22.13359 13.38035,0 24.45395,4.61482 32.57366,13.09232 l -10.98006,11.11323 c -5.16708,-6.02621 -13.10353,-9.98307 -21.77685,-9.98307 -12.18084,0 -16.61105,3.95686 -16.61105,7.5357 0,3.20081 3.41524,5.17989 15.50381,8.28783 1.66085,0.4709 10.33417,2.73122 12.08857,3.10925 15.59481,3.86007 23.34672,12.14921 23.34672,22.32064 0,11.77379 -10.15091,22.69997 -33.22082,22.69997 -10.55203,0 -20.80674,-2.68543 -29.29809,-8.40817 -0.0577,21.97793 -11.66439,41.17624 -28.94952,51.63021 10.88394,5.62464 23.1814,8.81367 36.21573,8.81367 44.3521,0 80.30768,-36.70008 80.30768,-81.97184 -0.003,-41.137 -29.6928,-75.189582 -68.39211,-81.067978 z" /><path
     style="fill:#00aeef;stroke-width:1.29471874"
     inkscape:connector-curvature="0"
     id="path3692"
     d="m 122.21533,120.85404 c 1.18797,0.72989 2.34262,1.50687 3.4742,2.31787 v -2.68544 c -1.14696,0.1622 -2.30545,0.28385 -3.4742,0.36757 z" /><g
     id="g3696"
     transform="matrix(1.2815191,0,0,1.3080544,-271.64419,-23.759224)"><path
       style="fill:#ef4136"
       inkscape:connector-curvature="0"
       id="path3694"
       d="m 273.656,144.699 c -0.295,-1.659 -0.535,-3.338 -0.696,-5.039 -0.829,0.563 -1.688,1.085 -2.576,1.563 1.275,0.967 2.387,2.138 3.272,3.476 z" /></g><g
     id="g3700"
     transform="matrix(1.2815191,0,0,1.3080544,-271.64419,-23.759224)"><path
       style="fill:#ef4136"
       inkscape:connector-curvature="0"
       id="path3698"
       d="m 275.944,153.659 c -0.591,7.28 -6.675,13.009 -14.108,13.009 -7.824,0 -14.167,-6.344 -14.167,-14.167 0,-3.19 1.067,-6.126 2.848,-8.494 -4.234,-0.915 -8.124,-2.754 -11.449,-5.298 -0.911,3.613 -1.4,7.395 -1.4,11.291 0,25.404 20.595,46 45.999,46 8.55,0 16.55,-2.341 23.409,-6.404 -14.569,-7.376 -25.859,-20.268 -31.132,-35.937 z" /></g><g
     id="g3704"
     transform="matrix(1.2815191,0,0,1.3080544,-271.64419,-23.759224)"><path
       d="m 300.294,59.785 c -6.624,0 -11.16,3.24 -11.16,9.217 v 22.334 c 5.881,-6.414 13.081,-11.593 21.169,-15.122 v -7.717 c 0,-5.472 -1.367,-8.712 -10.009,-8.712 z"
       id="path3702"
       inkscape:connector-curvature="0"
       style="fill:#8dc63f" /></g><g
     id="g3708"
     transform="matrix(1.2815191,0,0,1.3080544,-271.64419,-23.759224)"><path
       d="m 281.763,101.137 c 1.21322,-1.833908 2.80884,-3.879437 4.19884,-5.686437 L 277.499,95.499 c 1.64,1.694 3.073,3.586 4.264,5.638 z"
       id="path3706"
       inkscape:connector-curvature="0"
       style="fill:#8dc63f"
       sodipodi:nodetypes="cccc" /></g><g
     id="g4740"
     transform="matrix(1.2815191,0,0,1.3080544,-271.64419,-23.759224)"><g
       id="g3712"><path
         style="fill:#8dc63f"
         inkscape:connector-curvature="0"
         id="path3710"
         d="m 304.498,30.333 c -16.672,0 -30.969,10.158 -37.046,24.621 -5.15317,12.911918 -3.80626,23.046 1.473,34.197 0.053,0.1 0.102,0.202 0.154,0.302 2.994,1.42 6.097,3.737 8.42,6.046 25.87655,1.409043 1.23474,2.143015 32.82563,-0.165952 18.80514,0.581241 -2.60066,0.485774 11.93037,0.165952 l 0.058,-23.135 c 7.74265,-1.504777 15.05854,-1.73078 22.32,-0.672 0.012,-0.396 0.03,-0.792 0.03,-1.191 0.002,-22.185 -17.981,-40.168 -40.165,-40.168 z"
         sodipodi:nodetypes="scccccccccs" /></g></g><g
     id="g3718"
     transform="matrix(1.2815191,0,0,1.3080544,-271.64419,-23.759224)"><path
       style="fill:#345451"
       inkscape:connector-curvature="0"
       id="path3716"
       d="m 324.806,146.256 4.17,-4.17 c -1.076,-6.201 -3.392,-11.975 -6.686,-17.059 v 8.771 c 0,16.85 -11.305,22.754 -23.546,22.754 -8.137,0 -14.689,-3.313 -19.874,-9.648 l 8.28,-8.281 c 3.097,4.393 7.705,6.984 11.665,6.984 5.617,0 11.233,-2.52 11.233,-11.448 v -21.831 c -0.883,-0.62 -1.784,-1.215 -2.711,-1.772 -6.916,-4.16 -15.014,-6.556 -23.672,-6.556 -0.148,0 -0.294,0.01 -0.442,0.011 0.11,0.251 0.218,0.505 0.321,0.76 1.365,3.365 2.124,7.041 2.124,10.896 0,9.977 -5.039,18.774 -12.709,23.993 0.161,1.701 0.401,3.38 0.696,5.039 1.479,2.238 2.347,4.918 2.347,7.802 0,0.392 -0.027,0.775 -0.059,1.158 5.272,15.669 16.563,28.561 31.131,35.937 13.488,-7.991 22.545,-22.669 22.59,-39.471 -1.717,-1.135 -3.347,-2.416 -4.858,-3.869 z" /></g><g
     id="g3722"
     transform="matrix(1.2815191,0,0,1.3080544,-271.64419,-23.759224)"><path
       style="fill:#f9ed32"
       inkscape:connector-curvature="0"
       id="path3720"
       d="m 280.048,104.155 c 0.228,-0.426 0.467,-0.845 0.704,-1.265 -4.822,-3.542 -8.826,-8.131 -11.672,-13.438 -0.1,-0.047 -0.202,-0.091 -0.303,-0.137 C 256.53993,85 245,88 237.98,93.497 c -6.305,5.32 -10.313,13.275 -10.313,22.169 0,9.396 4.472,17.743 11.399,23.042 4.75,-18.813 21.09,-33.003 40.982,-34.553 z"
       sodipodi:nodetypes="cccccscc" /></g><g
     id="g3726"
     transform="matrix(1.2815191,0,0,1.3080544,-271.64419,-23.759224)"><path
       style="fill:#ec8037"
       inkscape:connector-curvature="0"
       id="path3724"
       d="m 261.836,138.334 c 3.215,0 6.17,1.084 8.548,2.889 0.888,-0.478 1.747,-0.999 2.576,-1.563 -0.188,-1.974 -0.292,-3.971 -0.292,-5.993 0,-10.672 2.675,-20.717 7.38,-29.512 -19.892,1.549 -36.231,15.739 -40.98,34.554 3.325,2.544 7.215,4.383 11.449,5.298 2.585,-3.439 6.686,-5.673 11.319,-5.673 z" /></g><g
     id="g3730"
     transform="matrix(1.2815191,0,0,1.3080544,-271.64419,-23.759224)"><path
       style="fill:#b8c43c"
       inkscape:connector-curvature="0"
       id="path3728"
       d="m 269.08,89.453 c 2.846,5.306 6.85,9.896 11.672,13.438 0.332,-0.587 0.66,-1.178 1.011,-1.753 -2.94721,-5.220407 -7.83147,-9.537034 -12.683,-11.685 z"
       sodipodi:nodetypes="cccc" /></g><g
     id="g3734"
     transform="matrix(1.2815191,0,0,1.3080544,-271.64419,-23.759224)"><path
       style="fill:#00aa6f"
       inkscape:connector-curvature="0"
       id="path3732"
       d="m 335.335,71 c -24.43579,0.240579 -42.18778,13.243799 -53.573,30.138 -0.351,0.576 -0.679,1.166 -1.011,1.753 -0.237,0.42 -0.477,0.838 -0.704,1.265 0.776,-0.061 1.558,-0.102 2.344,-0.123 0.277,-0.008 0.554,-0.019 0.832,-0.021 0.148,-0.001 0.294,-0.011 0.442,-0.011 8.658,0 16.756,2.396 23.672,6.556 0.912,-0.063 1.816,-0.156 2.711,-0.28 V 97.508 h 12.241 v 9.004 C 335.21,100.116 344.187,86.977 344.634,71.691 341.6,71.24 338.496,71 335.335,71 Z"
       sodipodi:nodetypes="ccccccsccccccc" /></g><g
     id="g3738"
     transform="matrix(1.2815191,0,0,1.3080544,-271.64419,-23.759224)"><path
       style="fill:#3d846c"
       inkscape:connector-curvature="0"
       id="path3736"
       d="m 283.545,104.771 c -0.104,-0.255 -0.211,-0.509 -0.321,-0.76 -0.278,0.002 -0.555,0.013 -0.832,0.021 -0.786,0.021 -1.567,0.063 -2.344,0.123 -4.705,8.795 -7.38,18.84 -7.38,29.512 0,2.022 0.104,4.02 0.292,5.993 7.67,-5.219 12.709,-14.017 12.709,-23.993 0,-3.854 -0.759,-7.531 -2.124,-10.896 z" /></g><g
     id="g3742"
     transform="matrix(1.2815191,0,0,1.3080544,-271.64419,-23.759224)"><path
       style="fill:#ec8037"
       inkscape:connector-curvature="0"
       id="path3740"
       d="m 270.384,141.223 c -4.084,2.195 -8.753,3.444 -13.715,3.444 -2.111,0 -4.169,-0.231 -6.152,-0.66 -1.78,2.368 -2.848,5.304 -2.848,8.494 0,7.823 6.343,14.167 14.167,14.167 7.434,0 13.518,-5.729 14.108,-13.009 -0.976,-2.898 -1.743,-5.89 -2.288,-8.96 -0.885,-1.338 -1.997,-2.509 -3.272,-3.476 z" /></g><g
     id="g3746"
     transform="matrix(1.2815191,0,0,1.3080544,-271.64419,-23.759224)"><path
       style="fill:#f9ed32"
       inkscape:connector-curvature="0"
       id="path3744"
       d="m 276.003,152.501 c 0,-2.884 -0.867,-5.563 -2.347,-7.802 0.545,3.07 1.313,6.062 2.288,8.96 0.032,-0.383 0.059,-0.766 0.059,-1.158 z" /></g><g
     id="g3750"
     transform="matrix(1.2815191,0,0,1.3080544,-271.64419,-23.759224)"><path
       style="fill:#f8971d"
       inkscape:connector-curvature="0"
       id="path3748"
       d="m 270.384,141.223 c -2.378,-1.805 -5.333,-2.889 -8.548,-2.889 -4.633,0 -8.734,2.234 -11.319,5.673 1.983,0.429 4.041,0.66 6.152,0.66 4.962,0 9.631,-1.249 13.715,-3.444 z" /></g><g
     id="g3780"
     transform="matrix(1.2815191,0,0,1.3080544,-271.64419,-23.759224)"><path
       style="fill:#ffffff"
       inkscape:connector-curvature="0"
       id="path3774"
       d="m 310.049,110.275 v 2.053 21.831 c 0,8.929 -5.616,11.448 -11.233,11.448 -3.96,0 -8.568,-2.592 -11.665,-6.984 l -8.28,8.281 c 5.185,6.336 11.737,9.648 19.874,9.648 12.241,0 23.546,-5.904 23.546,-22.754 v -8.771 -18.515 -9.004 H 310.05 v 12.767 z" /><path
       style="fill:#ffffff"
       inkscape:connector-curvature="0"
       id="path3776"
       d="m 360.232,122.135 c -1.368,-0.289 -8.137,-2.017 -9.433,-2.377 -9.433,-2.376 -12.098,-3.889 -12.098,-6.336 0,-2.736 3.457,-5.761 12.962,-5.761 6.769,0 12.961,3.025 16.993,7.632 l 8.568,-8.496 c -6.336,-6.48 -14.977,-10.009 -25.418,-10.009 -16.705,0 -25.563,7.632 -25.563,16.921 0,9.865 9.289,13.754 19.658,16.418 1.368,0.359 9.505,2.376 10.801,2.664 7.633,1.872 9.289,4.752 9.289,6.625 0,3.24 -3.456,6.264 -13.033,6.264 -6.769,0 -13.682,-2.52 -19.658,-7.92 l -4.326,4.326 -4.17,4.17 c 1.512,1.453 3.142,2.734 4.859,3.869 6.626,4.375 14.628,6.428 22.862,6.428 18.002,0 25.923,-8.353 25.923,-17.354 0.002,-7.776 -6.047,-14.113 -18.216,-17.064 z" /></g><path
     style="fill:#00be14;fill-opacity:1;stroke:#00be14;stroke-width:2.15433071;stroke-miterlimit:4;stroke-dasharray:none;stroke-opacity:1"
     d="m 176.13701,180.86848 c -5.31582,-0.46932 -9.47671,-1.28952 -13.73129,-2.70675 -6.33908,-2.11159 -12.32448,-5.57494 -16.68722,-9.65577 l -0.98389,-0.92032 1.93205,-2.06783 c 1.06263,-1.1373 3.50221,-3.63117 5.42129,-5.54194 l 3.48923,-3.47412 0.83474,0.76518 c 2.14991,1.97072 5.78273,4.4154 8.71321,5.86348 7.10108,3.50896 15.39819,4.5784 23.31481,3.00513 5.62077,-1.11702 8.89035,-3.84624 8.90387,-7.43235 0.009,-2.29648 -1.47539,-4.29697 -4.44689,-5.9944 -2.43288,-1.38975 -4.53333,-2.05892 -14.04746,-4.47531 -11.70986,-2.97405 -14.6116,-3.86199 -19.08408,-5.83977 -8.84467,-3.91121 -13.27167,-9.71612 -13.27167,-17.40251 0,-10.82622 9.10478,-19.13564 23.44339,-21.39545 5.03517,-0.79355 12.18854,-0.87955 16.66225,-0.2003 8.10634,1.23079 14.73572,3.9491 20.46949,8.3933 2.09928,1.62713 4.52387,3.85897 4.52387,4.16422 0,0.12394 -2.42086,2.64504 -5.37968,5.60245 l -5.3797,5.37712 -1.54676,-1.51491 c -4.69739,-4.60063 -10.43646,-7.35421 -17.06736,-8.18885 -2.29683,-0.2891 -7.3049,-0.13604 -9.95182,0.30415 -5.85523,0.97375 -9.53272,3.47996 -9.84466,6.70914 -0.28845,2.98595 2.50054,4.94231 10.31649,7.23661 3.19448,0.9377 11.36029,3.10929 16.37884,4.35573 8.418,2.09075 14.18855,4.92625 18.30758,8.99588 0.98182,0.97004 2.1577,2.32006 2.61308,3.00004 4.41702,6.59562 4.31996,14.86538 -0.25381,21.62582 -1.21513,1.79607 -3.73627,4.19226 -5.908,5.6152 -5.87618,3.85013 -12.79662,5.64118 -22.41186,5.80034 -2.4509,0.0406 -4.84852,0.0391 -5.32804,-0.003 z"
     id="path4601"
     inkscape:connector-curvature="0" /><path
     style="fill:#be1e2d;fill-opacity:1;stroke:#be1e2d;stroke-width:0.4173952;stroke-miterlimit:4;stroke-dasharray:none;stroke-opacity:1"
     d="m 107.51335,180.77474 c -4.17612,-0.44223 -8.6698,-1.89243 -12.068947,-3.89487 -2.996484,-1.76523 -6.796948,-5.00035 -8.88667,-7.56471 l -0.746255,-0.91575 5.202437,-5.33119 c 2.86134,-2.93216 5.253047,-5.33178 5.314903,-5.33248 0.06186,-7.8e-4 0.404442,0.40528 0.761302,0.9022 0.975531,1.3584 3.29587,3.60252 4.88375,4.72332 3.72699,2.63069 7.06446,3.60682 11.15259,3.26189 6.5606,-0.55354 10.45275,-3.74675 12.1063,-9.93229 0.41954,-1.56941 0.42033,-1.61412 0.48123,-27.19504 l 0.061,-25.62304 h 7.74973 7.74974 l -0.0585,26.30116 -0.0585,26.30116 -0.43624,2.19123 c -1.84593,9.27227 -6.42381,15.51571 -14.01236,19.11044 -5.36328,2.54061 -12.69745,3.68607 -19.19542,2.99797 z"
     id="path4603"
     inkscape:connector-curvature="0" /><path
     style="fill:#be1e2d;fill-opacity:1;stroke:#be1e2d;stroke-width:0.4173952;stroke-miterlimit:4;stroke-dasharray:none;stroke-opacity:1"
     d="m 175.16827,181.75542 c -11.59088,-0.88821 -22.5038,-5.48078 -30.51309,-12.84108 l -1.35416,-1.24444 1.77718,-1.91621 c 0.97745,-1.05391 3.73381,-3.8663 6.12523,-6.24975 l 4.34806,-4.33354 1.71945,1.49248 c 7.58227,6.5814 17.23566,9.85078 26.69584,9.04127 7.97629,-0.68253 12.29967,-3.12394 12.31566,-6.95464 0.0116,-2.78208 -2.64311,-5.09089 -7.8425,-6.82062 -1.27873,-0.4254 -5.55085,-1.60693 -9.4936,-2.6256 -11.9372,-3.08417 -15.10514,-4.04673 -19.15312,-5.81952 -9.92735,-4.34764 -14.5841,-10.69295 -14.21134,-19.36443 0.22102,-5.14161 2.08349,-9.24596 5.93663,-13.08262 4.73692,-4.71667 11.62197,-7.64807 20.54981,-8.74935 3.18957,-0.39345 11.75475,-0.32957 14.6279,0.1091 3.02343,0.46161 7.63164,1.62415 10.07485,2.54164 5.22964,1.96388 10.28268,5.14004 14.30587,8.99214 1.43934,1.37813 1.59554,1.75712 1.10919,2.6912 -0.20526,0.39421 -2.84216,3.17699 -5.85978,6.18395 l -5.4866,5.4672 -2.00976,-1.88288 c -4.5913,-4.30145 -8.8823,-6.59703 -14.63232,-7.82793 -1.63529,-0.35006 -2.56377,-0.41694 -5.63883,-0.40617 -4.29083,0.015 -6.79517,0.34198 -9.50702,1.24121 -3.10045,1.02809 -5.00639,2.56769 -5.51446,4.45449 -0.3834,1.42386 0.21371,2.52535 1.99207,3.67476 2.28148,1.47459 6.40015,2.81 17.58247,5.70081 3.14354,0.81266 6.97974,1.82821 8.52487,2.25678 13.48807,3.74119 21.22002,10.79519 22.47795,20.50706 0.68457,5.2853 -1.03743,11.10057 -4.54464,15.34739 -4.19691,5.08199 -11.51213,8.69649 -20.10269,9.93288 -4.06285,0.58475 -10.2532,0.79446 -14.29912,0.48442 z"
     id="path4605"
     inkscape:connector-curvature="0" /></svg>